<?xml version="1.0" encoding="UTF-8"?>
<svg id="Layer_2" data-name="Layer 2" xmlns="http://www.w3.org/2000/svg" viewBox="0 0 50 46.73">
  <defs>
    <style>
      .cls-1 {
        fill: #e23d1a;
      }
    </style>
  </defs>
  <g id="Layer_1-2" data-name="Layer 1">
    <g>
      <path class="cls-1" d="m50,14.28c0-.23-.02-.46-.03-.71H0v26.94c0,.62-.01,1.24.01,1.86.11,2.72,1.82,4.36,4.53,4.36,13.27,0,26.55,0,39.82,0,.41,0,.83-.03,1.23-.09,2.62-.41,4.4-2.48,4.4-5.1,0-9.08,0-18.17,0-27.25ZM15.26,38.42c-.03.8-.6,1.28-1.41,1.28-1.22.01-2.44.01-3.67,0-.8,0-1.28-.49-1.29-1.29-.01-.64,0-1.27,0-1.91s-.01-1.27,0-1.91c.02-.73.45-1.23,1.18-1.25,1.34-.04,2.69-.03,4.03,0,.68.02,1.14.47,1.16,1.15.04,1.31.05,2.62,0,3.92Zm0-14.07c-.02.8-.55,1.31-1.36,1.34-1.26.04-2.51.04-3.77,0-.81-.02-1.24-.52-1.25-1.34,0-.27,0-.53,0-.8,0-.35,0-.71,0-1.06,0-.39,0-.77,0-1.16,0-.25,0-.5,0-.75.02-.77.5-1.25,1.27-1.25,1.27-.01,2.55-.01,3.82,0,.75,0,1.25.45,1.27,1.2.04,1.27.04,2.55,0,3.82Zm5.93-3.73c0-.83.49-1.29,1.33-1.3.62,0,1.24,0,1.86,0s1.27,0,1.91,0c.73.01,1.24.43,1.26,1.16.04,1.36.04,2.72,0,4.07-.02.73-.41,1.1-1.15,1.12-1.32.04-2.65.04-3.97,0-.79-.02-1.23-.52-1.23-1.3-.01-1.25-.01-2.51,0-3.77Zm6.37,17.83c-.02.86-.44,1.24-1.3,1.25-.62,0-1.24,0-1.86,0s-1.24,0-1.86,0c-.87-.01-1.35-.48-1.35-1.34,0-1.24,0-2.48,0-3.71,0-.82.45-1.31,1.26-1.32,1.27-.03,2.55-.02,3.82,0,.81.02,1.28.48,1.29,1.3.02,1.27.03,2.55,0,3.82Zm12.45.05c-.02.76-.44,1.18-1.2,1.19-1.31.02-2.62.02-3.92,0-.7,0-1.21-.44-1.23-1.13-.04-1.36-.04-2.72,0-4.08.02-.7.5-1.14,1.21-1.16,1.31-.03,2.62-.03,3.92,0,.78.02,1.22.52,1.23,1.3.01.65,0,1.31,0,1.96h0c0,.64.01,1.27,0,1.91Zm0-14.04c-.02.75-.37,1.19-1.12,1.21-1.36.04-2.72.04-4.08,0-.71-.02-1.16-.48-1.17-1.2-.03-1.32-.04-2.65,0-3.97.02-.75.53-1.18,1.29-1.19,1.26,0,2.51,0,3.77,0,.83,0,1.3.49,1.31,1.32,0,.45,0,.9,0,1.35,0,.19,0,.37,0,.56,0,.17,0,.34,0,.5,0,.47,0,.94,0,1.4Z"/>
      <path class="cls-1" d="m40.03,22.56c0,.17,0,.34,0,.5,0-.17,0-.34,0-.5,0-.19,0-.37,0-.56,0,.19,0,.37,0,.56Z"/>
      <path class="cls-1" d="m8.89,23.56c0-.35,0-.71,0-1.06,0-.39,0-.77,0-1.16,0,.39,0,.77,0,1.16,0,.36,0,.71,0,1.06Z"/>
      <path class="cls-1" d="m39.89.07c.1-.03.15-.06.2-.06,1.79.03,3.59-.06,5.37.12,2.16.21,4.01,2.04,4.35,4,.03.19.05.38.05.57,0,1.84,0,3.69,0,5.56H.03C.03,8.19.01,6.16.04,4.13c0-.39.12-.78.24-1.16C.88,1.06,2.32,0,4.32,0c1.44,0,2.89,0,4.4,0,0,.23,0,.42,0,.6,0,1.31,0,2.62,0,3.93,0,1.01.65,1.69,1.57,1.69.91,0,1.54-.68,1.55-1.7.01-1.48,0-2.96,0-4.48h24.89c0,.18.03.36.03.54,0,1.34,0,2.69,0,4.03,0,.78.45,1.36,1.13,1.55.62.18,1.35-.04,1.68-.61.19-.32.29-.74.3-1.12.04-1.27.01-2.55.01-3.83,0-.19,0-.37,0-.55Z"/>
    </g>
  </g>
</svg>